<svg width="998" height="908" viewBox="0 0 998 908" fill="none" xmlns="http://www.w3.org/2000/svg">
<path d="M472.1 906.338C431.4 902.938 393.2 895.738 354.5 884.038C320.6 873.838 297.8 864.738 267.5 849.438C245.2 838.138 233.4 831.238 213.2 817.738C128.6 761.338 62.6 685.238 22.8 598.538C11.8 574.438 0 542.438 0 536.438C0 531.238 17.3 504.039 31.7 486.539L40.4 475.84L40.5 463.64C40.5 451.84 40.6 451.241 43.8 445.041C48.4 436.041 51.7 432.241 64.6 420.841C75.3 411.441 76 410.641 76 407.041C76 405.041 74.3 399.041 72.1 393.841C68.3 384.541 63.2 368.741 59.1 353.941C54.1 335.541 52.2 313.441 54 293.441C55.2 280.341 57 254.12 71 201.12C78.4 173.12 78.7531 188.016 77.6 179.12C72 135.92 84.3 82.8202 87.6 67.7202C90.5 54.7202 97.6 33.6202 102.6 23.1202C106.5 14.8202 115.4 0.7202 117.3 0.0202004C118.8 -0.4798 139 8.42021 148 13.6202C164.7 23.4202 215.9 65.0202 215.9 65.0202L227.7 61.3202C251.3 54.1202 268.9 51.6202 295.5 51.6202C323.6 51.6202 347.6 55.6202 369.4 63.9202C376.5 66.6202 377.6 66.8202 379.6 65.5202C380.9 64.7202 391.2 56.5202 402.5 47.1202C413.9 37.8202 427.1 27.3202 431.9 23.9202C445.9 13.7202 482.2 10.1 496.5 7C505.5 8.5 496.5 44.7202 496.5 44.7202L482.1 63C482.1 63 505 81.5 498.6 168.12C497.5 181.52 497.5 184.92 498.6 189.12C503.5 206.92 510.6 244.641 515.7 279.541C517.9 295.441 518.4 301.941 518.4 319.941C518.4 357.641 514.1 377.141 497.3 414.441C495.3 418.841 491.5 427.441 488.8 433.441C486.1 439.541 482.8 446.541 481.5 449.241C479.7 452.541 479 455.54 479 459.44C479 464.54 479.4 465.54 486.3 475.64C497.6 492.24 499.4 496.538 500.6 511.038C501.3 519.338 499.8 526.538 495.5 534.938L493.2 539.538L498.6 555.538C505.7 576.038 512.1 596.738 515.9 611.038C517.5 617.338 520.1 626.938 521.5 632.438C522.9 637.938 524.4 642.738 524.9 643.138C525.3 643.638 527.5 638.438 529.7 631.638C532 624.838 537.7 609.738 542.4 597.938L551 576.538L547.4 571.138C539.1 558.538 536.9 546.738 540.5 533.038C543 523.438 547 516.238 555.8 505.838C564.4 495.538 567 491.439 567 487.439C567 486.039 564.3 479.74 561.1 473.44C550 452.24 541.9 428.741 536.8 403.741C534.7 393.541 534.5 389.841 534.6 365.441C534.6 345.341 535.1 335.341 536.4 326.441C538.5 311.741 557 279.32 557 279.32C557 279.32 573.5 162.62 580.3 135.92C584.2 120.42 592.6 103.22 596.2 103.22C598.5 103.22 614.9 109.52 622.7 113.42C637.3 120.72 686 150.82 686 150.82C686 150.82 713.3 143.941 723 142.441C737.7 140.141 766.9 139.341 781.2 140.841C795.3 142.341 808.8 145.141 821.8 149.141L832.1 152.341L835.8 148.841C875.2 111.841 924.1 107.52 924.1 107.52C924.1 107.52 930 104.72 934.6 113.12C941.4 125.32 957.6 277.32 957.6 277.32C957.6 277.32 969.8 302.22 973.5 320.82C976.1 334.12 979.4 332.941 979.5 361.441C979.5 393.041 979 398.941 974.4 419.741C970.5 437.141 963.9 456.04 956.1 471.84C952.1 479.94 949 487.439 949 489.139C949 491.439 950.9 494.338 956.6 501.238C970 517.138 973.3 523.638 975 537.838C976.5 549.038 973.8 560.738 967.9 569.038L965.9 571.938L969.8 577.638C974.7 584.938 990.7 611.438 994.9 619.338C996.9 623.238 997.8 626.038 997.4 627.338C994.6 636.538 969.5 675.038 952.6 695.938C930.4 723.438 901.2 753.738 877 774.438C796.2 843.438 694.9 889.138 590.9 903.338C558.1 907.838 505.8 909.138 472.1 906.338ZM485 885.738C485.1 870.838 497.8 782.338 504 752.938C505.7 744.938 508.2 732.838 509.7 725.938C516.4 693.038 515.9 697.838 513.8 684.638C511.1 667.638 498.4 618.438 487.9 584.038C482.9 567.738 478.5 554.038 478 553.538C477.6 553.138 475.2 554.038 472.8 555.638C454.9 567.938 433.7 579.238 413.5 587.238C401.2 592.138 365.1 601.438 350 603.638C340.3 604.938 331 605.438 309 605.438C274.7 605.438 266.6 604.438 233.5 596.038C198.3 587.038 172 575.838 133.5 553.338C108.6 538.838 79.3 516.938 63.8 501.538C60.3 498.138 56.2 494.438 54.6 493.438L51.7 491.539L47.9 496.038C42.9 501.638 26.2 525.738 22.2 532.938C18.2 539.938 18.2 539.838 29.2 567.438C35.2 582.238 52.7 617.338 62 632.938C82.7 667.738 108.9 700.938 140.9 732.938C198.2 790.238 260.1 829.638 336.7 857.838C372.3 870.938 412.3 880.038 459 885.438C485 888.438 485 888.438 485 885.738ZM749.4 630.238C750.2 618.738 750.3 545.838 749.4 542.438C748.7 539.538 745.6 537.938 740.8 537.938H737.7L738.6 548.238C740 563.838 739.7 581.538 737.8 601.438C736.8 611.338 736 623.538 735.9 628.438L735.7 637.438L739.6 638.038C749.2 639.538 748.6 640.038 749.4 630.238ZM778.8 637.438C779.9 636.438 779.1 614.238 777.4 597.938C775.5 579.638 775.2 564.738 776.4 549.038L777.3 537.738L771.9 538.438C768.9 538.838 766.1 539.538 765.6 540.038C764.5 541.038 764.3 586.138 765.2 617.438C765.5 629.038 765.8 638.638 765.9 638.838C766.1 639.438 778.1 638.138 778.8 637.438ZM720.4 627.238C720.7 621.838 722.1 607.538 723.5 595.438C724.9 583.338 726 570.938 726 567.938C726 561.738 724.5 547.538 722.9 538.338L721.9 532.338L715.3 529.038C711.7 527.338 708.6 525.938 708.5 526.138C708.3 526.338 709.7 534.338 711.6 543.938C715.5 563.538 715.6 570.338 712 583.938C707.6 600.638 704.5 631.538 707.1 633.638C708.3 634.638 715.2 636.538 718.7 636.838C719.4 636.938 720 633.638 720.4 627.238ZM808.1 634.338C810.3 633.038 808.4 612.538 803.9 589.438C799.9 568.538 799.8 557.638 803.8 539.238C805.3 531.938 806.3 525.938 805.8 525.938C805.4 525.938 802.2 527.538 798.7 529.438L792.4 532.938L791.1 541.638C787.6 566.638 787.6 570.938 792 601.438C793.1 609.138 794.3 620.138 794.7 625.838L795.3 636.238L801.2 635.538C804.5 635.238 807.6 634.738 808.1 634.338ZM691.1 617.938C691.8 604.938 693 598.038 698 579.338C699.7 573.238 701 566.038 701 563.238C701 556.838 698.7 543.638 695 528.538C693.3 521.938 692 515.738 692 514.738C692 513.738 690 510.338 687.6 507.238C685.1 504.038 681.7 498.738 680 495.438L676.9 489.439L677.4 497.138C678.1 506.038 681.7 524.738 686.6 543.638C688.5 550.938 690 558.238 690 559.938C690 561.538 687.8 568.438 685.1 575.138C682.4 581.938 679.5 591.238 678.6 595.938C676.6 606.138 675.5 624.938 676.8 626.738C677.8 628.138 686.5 630.938 689 630.638C690.2 630.438 690.6 627.938 691.1 617.938ZM832.5 629.638L837.5 628.338L838.1 623.338C838.9 616.838 836.6 595.538 834 585.438C832.8 581.038 830.3 574.138 828.4 570.038C826.5 566.038 825 561.838 825 560.838C825 559.838 826.8 551.738 829 542.738C833.9 523.138 837.6 503.139 838.4 492.939L839 485.439L837.1 490.739C836 493.639 832.6 499.438 829.6 503.738C824.6 510.938 823.9 512.538 821.1 524.438C813.1 559.138 812.9 561.638 817.4 580.538C821.6 598.238 824 613.538 824 623.738C824 631.938 823.9 631.838 832.5 629.638ZM659.2 610.338C660.1 597.138 663.4 583.638 668.9 571.038C671.2 565.838 672.7 561.238 672.3 560.838C671.8 560.438 669 559.138 666 557.938L660.5 555.738L658.4 558.238C655.3 561.838 647.1 581.838 645.3 590.238C644.5 594.138 643.7 601.538 643.7 606.438L643.5 615.438L650 618.638C653.6 620.338 657 621.638 657.5 621.538C658.1 621.438 658.8 616.338 659.2 610.338ZM863.7 619.038L870.5 616.138L870.8 607.638C871.3 592.738 864.1 565.938 857.4 557.938L855 555.238L848 557.738L841 560.238L843.8 565.338C850.4 576.938 854 591.638 855.6 612.738C856 617.738 856.4 621.938 856.5 621.938C856.7 621.938 859.9 620.638 863.7 619.038ZM625.5 598.738C627.1 579.238 630.7 569.238 642.7 550.238C644 548.238 643.8 547.938 637.3 544.538L630.6 540.938L628.3 543.738C624.2 548.638 616 566.238 613.9 574.438C612.8 578.838 611.6 586.338 611.3 591.038L610.7 599.638L617.1 603.238C620.6 605.138 623.8 606.738 624.1 606.838C624.5 606.838 625.1 603.238 625.5 598.738ZM898.2 602.838L904.3 599.738L903.7 591.138C903 581.238 899.9 568.038 896.3 559.938C893 552.338 886.1 541.938 884.3 541.938C883.2 541.938 873.3 546.438 872.1 547.538C871.9 547.738 872.9 549.638 874.2 551.738C882.1 563.638 887 577.838 889.1 595.238C889.8 601.138 890.8 605.938 891.2 605.938C891.7 605.938 894.8 604.538 898.2 602.838ZM594 583.938C594 570.638 601.7 550.038 610.9 538.938C613 536.438 614.9 533.938 615.3 533.238C616.1 532.038 607.4 523.038 605.3 522.938C603.3 522.938 596.7 531.338 591.8 540.038C585.5 551.338 581.9 562.538 581.3 572.438L580.9 580.438L586.7 584.538C589.9 586.838 592.8 588.438 593.3 588.238C593.7 588.038 594 586.038 594 583.938ZM322.8 575.438C323 568.838 322.6 558.038 322 551.438C318.6 512.138 318.5 510.238 320.4 493.938C321.4 485.438 322.5 474.94 322.7 470.64L323.3 462.84L316.4 463.14L309.5 463.44L308.8 472.94C307.1 496.74 306.8 521.338 307.8 539.338C308.5 549.838 309.3 565.138 309.6 573.238L310.2 588.038L316.4 587.738L322.5 587.438L322.8 575.438ZM930.9 582.138L934.3 579.638L933.6 572.638C932.6 562.338 930.2 552.238 926.8 545.138C924.3 539.738 913.5 525.038 910.9 523.438C910.4 523.038 907.3 524.738 904 527.038L898.1 531.138L903.4 537.838C912.8 549.738 916.4 557.838 919.5 574.738C922.3 589.838 921.7 588.338 924.8 586.438C926.3 585.438 929 583.538 930.9 582.138ZM286.2 571.438C287 556.938 289.8 515.839 292 487.939C292.6 480.539 293 471.54 292.8 468.04C292.5 461.74 292.5 461.64 289 460.44C287 459.74 284 458.84 282.3 458.54L279.1 457.84L279.2 477.14C279.2 490.24 278.6 502.738 277.2 515.938C274.7 539.938 272.7 571.438 273.1 579.438C273.5 585.438 273.5 585.438 277 586.038C278.9 586.438 281.6 586.638 283 586.538L285.5 586.438L286.2 571.438ZM355.5 583.538C357.2 582.338 357.3 581.138 356.7 568.838C356 553.938 352.8 530.938 350.4 523.638L348.8 518.838L343.1 519.538C340 519.838 337.4 520.238 337.3 520.338C337.2 520.438 338.2 526.638 339.5 534.038C340.9 541.338 342.5 553.038 343 559.938C343.6 566.838 344.3 575.238 344.6 578.738L345.2 584.938H349.4C351.7 584.938 354.4 584.338 355.5 583.538ZM251.8 571.338C254.5 551.238 258.2 529.138 261 516.338C265.7 495.338 266.4 487.14 265 468.54C264.3 459.74 263.6 452.141 263.4 451.741C262.7 450.641 251.7 444.941 251.2 445.441C250.9 445.641 251.5 454.34 252.4 464.64C254.4 486.14 253.9 493.338 249 513.438C244.1 533.938 243.2 537.938 240.5 555.638C237.1 577.738 237.1 577.938 243.5 580.138C246.3 581.038 249 581.638 249.5 581.538C250.1 581.438 251.1 576.838 251.8 571.338ZM388.4 575.938C391.5 574.838 391.5 574.138 389.5 558.538C387.7 544.638 386 537.238 382.1 525.838C377.7 512.838 377.8 512.938 372.8 514.138C370.4 514.738 368.2 515.538 367.8 515.838C367.4 516.138 368.9 523.438 371 531.938C373.1 540.438 375.4 552.338 376 558.438C376.5 564.438 377.3 571.438 377.6 573.838L378.2 578.138L382 577.538C384.1 577.238 387 576.538 388.4 575.938ZM216.4 570.738C216.6 570.038 217.3 565.838 218 561.438C219.7 549.738 225.1 529.538 232.2 507.738L238.5 488.439L238.4 472.44C238.2 453.34 235.8 433.441 233.3 430.241C232.3 429.141 229.6 425.841 227.2 422.941C224.9 420.141 222.6 417.041 222.1 416.141C220.4 413.041 220.1 415.341 221.5 421.441C224 432.241 225.9 448.14 226.6 462.44C227.4 481.24 225.9 490.438 218.7 508.638C211.2 527.538 204.8 551.338 203.8 563.438C203.5 567.438 203.5 567.438 209 569.638C215.5 572.238 216 572.338 216.4 570.738ZM420.5 563.638C424.2 561.538 424.5 561.038 424.8 556.338C425.6 543.038 412.8 502.938 407.7 502.938C406.7 502.938 398 505.938 397.1 506.538C396.9 506.738 398 509.438 399.5 512.638C403.8 521.638 408.6 537.338 411 549.938C412.2 556.238 413.3 562.438 413.6 563.738C414.2 566.538 415.5 566.538 420.5 563.638ZM571.4 543.038C574.9 533.038 580.1 524.038 586.4 517.238L591.7 511.538L588.1 506.738C586.2 504.138 584 501.938 583.4 501.938C581.8 501.938 569.7 515.338 564.3 523.138C559.6 529.838 557.3 535.938 556.4 543.538C555.7 549.338 557.5 554.438 563.1 561.938L566.4 566.438L567.7 558.438C568.4 554.038 570.1 547.138 571.4 543.038ZM956.7 555.538C958.9 551.438 958.6 540.538 956.1 533.638C953.6 526.438 945.8 515.138 938.1 507.438L932 501.538L928.9 504.438C923.3 509.838 923.3 510.038 930.5 519.438C941.1 533.338 946.5 545.638 948.5 560.438L949.2 565.438L952.2 561.938C953.8 560.038 955.8 557.138 956.7 555.538ZM181.3 549.938C183.7 539.738 191 520.838 199.2 503.538C209 482.638 209.6 480.44 210.9 464.44C212.7 442.84 211 423.741 204.8 392.941C201.7 377.741 201.7 376.841 201.6 348.341L201.5 319.241L195.6 318.141C192.3 317.441 189.4 317.241 189.1 317.541C188.8 317.841 188.5 328.341 188.6 340.741C188.6 362.741 188.8 364.341 193.3 392.441C200.6 438.141 201.2 448.84 197.5 471.34C196.1 480.54 193.9 485.938 185.8 500.938C177.8 515.938 166.9 546.638 168.4 550.438C168.8 551.638 177.3 556.738 179.1 556.938C179.4 556.938 180.4 553.738 181.3 549.938ZM452.4 546.838L457.3 543.838L456.6 537.138C455.1 521.938 449 505.138 440.8 493.238L437.9 488.939L432 491.939L426.1 494.938L430.5 502.038C432.9 505.938 436 511.938 437.3 515.238C439.7 521.338 445 542.838 445 546.638C445 550.738 446.2 550.838 452.4 546.838ZM674.4 548.238C662.7 498.538 659.4 474.641 658.4 431.041L657.7 402.941H655C653.5 402.941 650.1 402.641 647.5 402.241L642.7 401.641L643.3 424.541C644 452.041 645.9 470.538 650.6 493.938C654.3 512.838 661.1 540.638 662.3 542.738C663.1 543.938 672.9 549.938 674.2 549.938C674.5 549.938 674.6 549.138 674.4 548.238ZM850.9 544.038C853.3 542.238 854.1 539.938 858.7 521.238C865.3 494.738 865.6 493.24 868 476.44C871.1 454.34 872 441.841 872 421.041V401.641L867.4 402.341C864.8 402.641 861.5 402.941 860 402.941H857.3L856.7 433.241C855.9 473.441 853.8 490.638 844.6 530.938C842.6 539.438 841 547.038 841 547.738C841 549.238 846.4 547.138 850.9 544.038ZM150.5 528.238C154.7 515.738 163.3 498.339 171.1 486.739C174.3 481.939 177 477.54 177 477.04C177 475.34 168 472.44 166.1 473.54C163.2 475.34 150.9 494.138 145.9 504.438C140.9 514.938 136 528.338 136 531.838C136 533.238 137.4 534.638 140.8 536.338C143.4 537.738 145.9 538.738 146.3 538.638C146.7 538.538 148.6 533.838 150.5 528.238ZM875 530.938C880.9 526.938 881.3 526.338 882.5 519.938C882.9 518.038 885.1 509.638 887.5 501.438C896.5 470.438 899.8 453.841 901.9 429.941C903.2 414.841 904.2 386.941 903.5 386.941C903.1 386.941 901 388.441 898.7 390.341C896.4 392.141 893.1 394.441 891.4 395.241L888.3 396.841L887.7 419.141C886.7 451.841 884.2 469.038 875 507.338C871.8 520.638 868.9 532.238 868.5 533.238C867.5 535.738 868.4 535.438 875 530.938ZM646.1 531.638C644.7 528.038 633.3 476.64 631.1 463.94C628.3 447.94 627 432.141 627 413.741V397.941L622.8 395.341C620.4 393.841 617.2 391.541 615.7 390.341C614.1 389.041 612.4 387.941 611.8 387.941C609.5 387.941 612.4 431.941 616.1 452.841C619.5 472.341 633.5 524.238 636.4 527.838C637.8 529.638 644.2 533.838 645.7 533.838C646.6 533.938 646.7 533.238 646.1 531.638ZM476.8 528.838C480.5 524.438 480.9 523.638 481.9 518.538C482.9 512.938 481.6 504.038 478.9 498.638C475.1 490.838 462.5 473.04 460.9 472.94C458.7 472.94 454.3 476.54 453.5 479.04C453 480.44 454.6 483.839 459 490.839C467.9 505.239 469.7 510.438 472.5 528.238C472.8 530.238 473.3 531.938 473.6 531.938C473.9 531.938 475.3 530.538 476.8 528.838ZM119.1 515.138C121.6 507.538 129 491.839 133.2 485.239C135.7 481.539 140.2 475.64 143.3 472.34C146.4 468.94 149 465.94 149 465.64C149 464.74 139.4 458.94 137.9 458.94C136.2 458.94 126.1 471.539 119.8 481.439C113.7 491.039 107.8 504.238 107.2 509.438C106.8 513.738 106.8 513.838 111.5 516.838C114.1 518.538 116.6 519.638 117.1 519.438C117.5 519.138 118.4 517.238 119.1 515.138ZM906 507.938C907.1 506.338 910.5 497.939 913.5 489.139C931.3 437.439 933.6 423.241 933.4 366.941C933.3 334.141 932.3 322.641 928.9 293.441C927.2 278.841 921.5 254.841 914.5 232.941C910.6 220.841 909.2 218.441 900.1 208.941L892 200.441L894.1 205.941C899 218.341 908 247.141 910.4 257.941C911.8 264.241 913.8 289.82 915 297.82C916.6 309.22 917.8 313.92 920.4 319.82C929.1 339.22 929.7 340.941 922 361.741C920.5 365.541 920 369.541 920 376.241C920 410.141 916.2 440.14 907.9 471.94C904.5 484.84 900.7 499.538 899.4 504.438C898.1 509.438 897 514.038 897 514.738C897 516.438 903.4 511.538 906 507.938ZM618 512.238C614.1 499.838 601.6 451.041 599.9 441.441C597.4 426.641 595.1 397.841 595 380.341C595 370.441 594.6 366.241 593.4 363.341C589.9 354.941 589.3 337.341 589.3 337.341C589.3 337.341 588.468 331.048 589.3 327.741C591.155 320.369 594 315.741 594.7 309.041C597.5 284.841 611 228.841 620.6 205.441C621.8 202.541 611.6 211.241 606.9 217.141C604.3 220.541 602.2 224.941 600 232.141C595.4 246.741 589.4 270.841 587.6 281.441C583.1 308.441 579.4 354.941 580.3 380.441C581.9 422.541 585.9 443.439 600.7 485.939C607.2 504.539 607.7 505.638 612.4 510.238C618 515.638 619.3 516.038 618 512.238ZM341.5 510.538C344.4 509.338 345 508.538 345 506.038C345 504.438 346.6 494.939 348.5 484.939C350.4 475.039 352.3 464.44 352.6 461.34L353.3 455.84L346.9 458.24L340.6 460.64L338.9 471.04C338 476.84 336.5 484.739 335.6 488.639C334.7 492.639 334 499.438 334 503.838C334 512.938 334.5 513.438 341.5 510.538ZM363.5 504.438C369 502.838 370 501.738 370 496.938C370.1 492.038 373.2 478.34 378.6 459.24C381.1 450.24 383 442.541 382.8 442.041C382.7 441.441 380.1 442.541 377.1 444.441C374.1 446.341 371.3 448.041 370.9 448.141C370 448.441 368.4 453.84 362 479.04C357.7 495.94 356.1 505.938 357.7 505.938C358.2 505.938 360.9 505.238 363.5 504.438ZM91 497.838C91 497.138 92.6 492.739 94.7 488.039C99.4 476.939 107.1 465.04 114.9 457.14C118.2 453.74 121 450.741 121 450.541C121 450.341 118.7 448.441 115.9 446.441L110.8 442.741L107.3 446.141C100.8 452.341 89.7 467.44 86.3 474.84C82.9 482.04 81.1 491.438 82.7 493.438C84 495.138 89.2 498.938 90.1 498.938C90.6 498.938 91 498.438 91 497.838ZM392.7 491.739C393.2 491.039 394.3 487.539 394.9 483.939C395.6 480.339 399 467.74 402.5 455.94C412.6 421.84 412.8 420.841 414.5 413.041C416.8 402.041 419 375.441 419 358.441C419 346.441 417.4 321.041 416.7 320.241C416.6 320.141 414 319.941 411 319.841L405.5 319.541L405.8 331.941C406 339.941 406.7 345.641 407.7 348.341C412.2 360.441 413.2 363.941 414.2 371.641C415 377.941 415 382.641 414.1 389.541C412.8 400.241 410.5 407.041 405.4 415.541C402 420.941 399.2 428.841 394.1 447.441C393 451.341 391.4 456.14 390.5 458.24C387.8 464.74 380.7 496.338 381.7 497.338C382.4 498.038 391.3 493.439 392.7 491.739ZM735 492C738 491.2 748.487 497.138 757.5 497.138C764.5 497.138 770 490.65 775 491.539C788.5 493.938 809.362 489.218 807.7 489.439C804.362 489.439 790.085 489.279 780 485C773.43 482.212 768.5 479.42 764.5 475.32C758.1 468.92 762.2 458.941 767 451.841C769.2 448.541 770 446.241 770 442.841C764.5 439.32 765.4 433.82 777.3 434.741C781.3 434.841 782.2 434.541 784.4 431.841C787.8 427.841 787.7 426.741 783.5 423.141C778.9 419.041 774.6 417.941 767.9 419.141C762.8 420.041 752.2 419.741 743.8 418.341C741.1 417.941 738.9 418.341 735.5 419.941C729.6 422.841 727.4 425.941 729.1 429.141C731.5 433.841 733.1 434.941 738 434.941C740.6 434.941 743.962 434.241 744.562 434.941C747.825 436.02 748.562 438.32 745.2 443.441C745.5 447.841 746.3 450.541 748.3 453.441C752.4 459.541 756.662 468.52 751.562 474.32C746.963 479.52 735.163 485.318 725.562 489.318C721.963 490.818 709.762 488.5 708.5 488.5C710.762 491.08 722.9 495.4 735 492ZM413.5 481.439C417.6 478.839 419 477.34 419 475.64C419 472.84 425.3 450.441 433.3 424.441C446.1 383.041 448.5 368.841 447.7 337.441C447.4 325.341 446.8 314.241 446.5 312.741L445.8 310.141L440.1 313.241L434.4 316.341L434.8 338.441C435.5 375.941 433.8 386.541 418.5 437.441C409.2 468.541 405.4 484.939 407.5 484.939C407.8 484.939 410.5 483.339 413.5 481.439ZM937.8 468.14C948.1 448.44 956.5 423.541 960.1 401.941C962.8 386.041 963.7 356.741 962.1 340.341C960 319.841 949.7 304.441 942.5 283.641C939.5 275.141 932.2 247.341 931.5 248.141C931.3 248.341 932.7 254.241 934.6 261.441C940.8 285.241 946.7 319.441 948.5 350.441C949.2 363.241 947.6 395.441 945.5 410.241C943.1 427.841 938.1 449.74 932.5 467.44C927.3 483.84 927.3 484.339 929.9 481.139C931.5 479.339 935 473.44 937.8 468.14ZM582.9 469.44C569.4 424.74 565.4 397.341 566.3 356.441C567.1 321.941 573.9 283.441 583.6 247.441C584.1 245.341 573.2 282.72 569.5 290.32C563.3 302.72 555.5 318.82 553 328.82C549.5 357.32 552 377.82 555.1 404.241C559.2 424.041 567.4 447.64 576.5 466.14C579.9 472.84 586.2 483.139 586.6 482.639C586.8 482.539 585.1 476.54 582.9 469.44ZM67.8 470.64C70.7 461.14 76.9 452.041 87.1 442.041C96.1 433.341 96.4 432.341 91.7 426.541L89.3 423.641L79.2 432.341C65.2 444.441 58.1 454.64 58 462.84C58 465.84 63.6 477.94 65 477.94C65.3 477.94 66.6 474.64 67.8 470.64ZM438.2 465.44L442.7 462.94L454.3 428.141C470.5 379.441 474.3 364.141 475.6 340.441C476.3 328.341 474.9 306.041 472.4 290.441C470.2 276.941 470.1 276.641 468 282.141C467 284.741 464.9 288.741 463.2 290.941C460.5 294.641 460.3 295.341 461.1 299.441C462.7 307.841 464 333.041 463.4 343.241C462.2 364.741 453.5 401.241 442.5 430.941C437 445.641 431.5 467.94 433.4 467.94C433.6 467.94 435.8 466.84 438.2 465.44ZM184.1 456.84C185.7 445.94 185.4 424.041 183.5 412.441C182.6 406.941 179.6 391.241 176.8 377.441C172.4 355.741 171.7 350.441 171.3 336.941C171 328.441 171.2 318.341 171.8 314.441L172.7 307.441L169 303.341C166.9 301.141 164.4 298.041 163.4 296.441L161.6 293.641L160.3 301.041C156.3 324.541 157.8 345.341 167 388.941C173.6 420.141 174.5 438.64 170.4 458.14C169.9 460.64 170.4 461.04 175.7 463.74C182.5 467.24 182.5 467.24 184.1 456.84ZM157.7 423.441L157.3 406.441L150.6 380.541C142 346.941 140.7 339.641 140.6 322.441C140.6 307.841 141.3 302.141 146.1 280.141C147.7 272.841 149 264.041 149 260.641C149 252.641 151.3 242.241 154.4 235.441C157.1 229.341 159.2 201.62 161.6 184.62C166.9 145.62 176.2 136.92 194.8 104.62C198.2 98.9202 200.7 94.0202 200.5 93.8202C199.8 93.0202 190.6 99.1202 185.9 103.52C176.7 112.12 164.5 137.42 157.1 163.12C152.9 177.92 151.1 167.22 148.5 185.12C145 208.02 141.8 242.741 136.8 262.441C128.7 294.241 126.4 320.541 129.5 344.641C131.4 358.641 131.7 360.041 138.5 383.941C145.2 407.441 146.4 415.141 145.6 430.441C145.3 437.041 145.3 442.941 145.7 443.541C146.2 444.141 148.8 446.141 151.5 447.841L156.5 451.041L157.3 445.741C157.8 442.841 157.9 432.841 157.7 423.441ZM460.9 445.341C467.1 438.341 487.9 390.341 494.2 368.541C499.5 350.041 500.5 342.341 500.5 319.941C500.4 299.141 499.3 288.741 494.9 266.941C493.9 261.741 492.1 250.741 491 242.441C486.7 210.941 483.2 197.32 477 184.42C473.3 176.62 463.7 160.92 461.3 158.52C460.8 158.02 462 162.62 464 168.82C470.8 189.02 475.9 212.641 480 243.241C481.1 251.641 483.4 267.441 485.1 278.441C491.3 319.941 490.8 340.641 482.8 371.441C480.1 381.841 472.3 404.841 459.6 439.241C457.6 444.541 456.4 448.941 456.9 448.941C457.4 448.941 459.2 447.341 460.9 445.341ZM331.7 445.441C345.1 442.641 356.7 437.641 369.2 429.241C396 411.241 405.9 383.241 393.9 359.741C390.1 352.341 381 341.141 375.2 336.841C367.8 331.341 358.4 323.241 348.9 314.341C344.8 310.441 338.9 306.041 335.9 304.641C328.3 300.841 315.7 299.241 307.7 300.841C299.8 302.441 291.4 306.841 287 311.441C285.1 313.541 275 321.641 264.5 329.441C239.3 348.341 231.7 357.741 229 373.241C225.3 394.241 236.3 414.641 259 429.141C266.4 433.841 279.3 440.241 285.6 442.341C299.4 446.841 319 448.241 331.7 445.441ZM840.3 421.041L839.5 401.641L832 399.841C827.9 398.841 824.3 398.041 824.1 397.941C823.9 397.941 823.9 402.541 824.2 408.241L824.6 418.441L830.7 427.441C834 432.441 837.6 438.741 838.6 441.441C840.4 446.141 840.5 446.241 840.8 443.441C840.9 441.841 840.7 431.741 840.3 421.041ZM684.1 427.541C691.2 417.541 691 418.141 691 407.541C691 398.641 690.8 397.741 689.3 398.441C688.3 398.741 685 399.541 682 400.141C679 400.741 676.2 401.541 675.8 401.841C675.5 402.141 675 411.941 674.8 423.541L674.5 444.741L677.6 438.541C679.2 435.141 682.2 430.241 684.1 427.541ZM130 422.041C130 408.541 128.3 398.841 122.6 378.841C116 355.741 114.3 348.641 112.4 335.941C109.2 313.641 112.3 283.741 120.2 261.941C124.2 250.741 127.3 217.72 131 192.12C135.9 158.62 141.4 157.72 152 135.72C155.3 128.92 157.9 123.12 157.6 122.92C157.4 122.72 152.5 126.82 146.8 132.02C135.6 142.12 134.2 144.32 130.5 158.12C129.6 161.42 127.5 168.22 125.9 173.32C124.3 178.42 121 175.82 118.5 191.32C113.4 221.92 112.5 244.541 107.5 259.941C105.6 265.741 102.8 276.341 101.4 283.441C99 294.641 98.7 298.841 98.7 313.441C98.7 332.841 99.9 341.041 106 363.041C114 391.341 116 399.641 117.5 409.941C118.3 415.741 119.5 421.941 120.1 423.641C121 426.641 127.3 432.941 129.2 432.941C129.7 432.941 130 428.041 130 422.041ZM105 407.241C105 403.041 102.7 394.341 96 372.941C86.6 342.741 84.7 332.141 84.6 310.441C84.5 290.941 85.5 283.941 91 265.941C95.3 251.641 96.8 227.12 100.5 207.32C106.1 177.32 108.9 183.62 112.1 173.72C113.7 168.62 114.9 164.22 114.7 164.02C114.5 163.82 111.8 167.12 108.7 171.32C98.6 185.52 96.1 191.941 85.5 236.841C83.5 245.341 81 254.541 79.9 257.341C76.5 265.741 73.1 281.741 72 294.541C69.6 321.541 74.3 346.741 89.3 388.041C92.1 395.841 92 395.641 97.7 403.741C102.5 410.441 105 411.641 105 407.241ZM713.5 398.841C719.8 393.941 722 390.241 722 384.641C722 382.441 722.4 382.341 713.8 387.241C709.4 389.741 707 391.741 707 392.841C707 393.841 706.7 396.741 706.4 399.341C706 401.841 706 403.941 706.4 403.941C706.7 403.941 709.9 401.641 713.5 398.841ZM808.3 396.841L807.7 390.441L800.9 386.241C797 383.941 793.8 382.541 793.4 383.041C792.8 384.141 793.5 387.941 795.2 392.241C796.1 394.641 807.7 404.541 808.6 403.641C808.8 403.441 808.7 400.441 808.3 396.841ZM744.5 382.641L749.5 381.341L750.1 293.341C750.5 245.041 751.3 199.841 751.9 184.441C753.2 150.141 753.2 156.741 752 157.441C750.5 158.341 748.4 161.441 744.6 180.341C738.8 209.241 736.6 242.041 737.2 295.441L735.5 352.441C735.5 352.441 735.5 371.941 735.5 380.441C735.5 388.941 736.8 384.641 744.5 382.641ZM777.4 375.941C777.4 369.141 777.405 376.353 777.405 376.353L777.9 345.92L778.6 314.12C779.2 283.12 778.4 241.841 775.9 218.441C774.6 205.141 768.4 173.241 766.1 164.441C764.4 157.941 764.2 157.641 763.5 160.341C763 161.941 763.1 174.741 763.6 194.841C764.1 214.941 764.5 259.541 764.5 302.441V380.441L769.5 382.141C777.3 384.741 777.5 384.541 777.4 375.941ZM686.5 358.341C692.8 356.641 698 353.441 698 351.441C698 348.641 695.3 344.541 689.7 339.041C684.2 333.641 682 333.141 682 337.341C682 341.141 677 349.841 673.9 351.541C665.6 355.741 658.5 342.041 661.3 327.341C662.1 323.541 661.9 323.141 659.8 322.541C654.3 321.041 640.5 320.52 640.5 320.52C614.7 321.12 631.1 322.541 640.3 328.941C641.6 343.741 653.1 356.441 668 359.541C674 360.841 678.7 360.541 686.5 358.341ZM857.5 356.441C866.8 351.941 873.1 341.641 874.6 328.641C886.6 316.62 899.4 316.62 864.6 321.241C853.857 322.667 854.1 321.841 854.2 330.841C854.2 340.141 852.6 346.141 848.8 350.141C846.5 352.641 845.5 353.041 843.2 352.441C838.2 351.241 833.9 345.341 832.5 337.641C832.1 335.641 831.4 333.941 830.9 333.941C830.3 333.941 827.2 336.541 824 339.741C818.9 344.641 818 346.041 818 349.041C818 354.141 819.8 355.841 827.5 358.041C837.6 360.841 850 360.141 857.5 356.441ZM224.4 345.941C229.6 336.941 230.3 335.041 231.1 327.841C231.6 323.441 231.8 319.441 231.6 319.141C231.4 318.741 228.7 318.641 225.7 318.741L220.1 319.141L219 324.241C217.4 330.941 216.4 355.941 217.7 355.941C218.2 355.941 221.2 351.441 224.4 345.941ZM389 323.541C389 318.341 387.4 316.441 381.8 314.641C372.5 311.741 370.6 312.741 376.1 317.641C379.4 320.641 387 325.741 388.3 325.841C388.7 325.941 389 324.841 389 323.541ZM252.3 319.741C256.2 317.141 264 309.841 264 308.841C264 308.241 257.7 310.441 250.3 313.541C249.3 314.041 247.9 321.941 248.8 321.941C249 321.941 250.6 320.941 252.3 319.741ZM721.8 287.741C721.9 271.041 722.5 251.341 723 243.941C725 217.841 730.1 193.541 736.6 171.041C738.5 164.241 739.9 158.541 739.6 158.241C739.4 157.941 737.9 158.041 736.3 158.341C732.9 159.141 730.3 163.341 725.6 175.741C715.9 201.241 710.2 225.541 708 261.941C706.8 281.241 702.4 325.341 703.5 326.941C704 327.841 719.7 342.62 720.5 342.82C720.5 342.82 721.7 304.341 721.8 287.741ZM796.5 329.82C796.9 329.22 799.7 326.92 802.7 324.62L808.3 320.52L807.7 296.42C806.8 261.52 803.5 220.441 797.1 195.841C791.5 174.441 784.1 161.141 780.1 158.941C779 158.441 777 157.941 775.5 157.941C773 157.941 773 158.041 774.5 160.341C784.4 175.441 795 265.02 793.8 316.62C793.6 327.12 793.8 330.82 794.7 330.82C795.3 330.82 796.2 330.32 796.5 329.82ZM235.8 301.041C258 295.341 280.5 281.641 286.1 270.641C289.2 264.741 287.6 260.241 279.7 252.641C271.2 244.541 266.4 239.02 252.3 232.32C236.7 224.92 227.5 210.32 214 209.02C189.1 206.52 175.7 227.841 167.8 243.841C165.8 247.741 165.5 250.041 165.5 258.941C165.5 268.541 165.7 269.941 168.4 274.941C176.6 290.541 187 299.341 201 302.641C208.8 304.441 225.6 303.641 235.8 301.041ZM423.3 302.441C436.7 298.941 445.1 291.941 451.7 278.441L456.2 269.441L455.8 258.941C455.5 251.141 454.8 247.241 453.3 243.741C450.2 236.841 443.9 212.32 436.7 209.02C430.7 206.22 429.9 206.12 415.5 206.12C401.7 206.12 399.8 206.32 391.7 209.02C373.2 215.12 354 244.941 344.6 255.741C339 262.241 340.4 271.341 348.2 278.541C355.7 285.541 372.6 295.341 384.5 299.641C395.6 303.741 413.5 305.041 423.3 302.441ZM691 288.241C691 249.941 699.5 209.341 712.7 176.941C715.7 169.541 718.9 162.641 719.7 161.741C721.7 159.541 720.3 159.441 715.2 161.441C710.5 163.341 706.1 164.741 698.5 180.441C685.5 207.341 678 240.141 676.4 276.441L671.5 310.841L678.3 314.041C682.1 315.741 685.5 317.241 686 317.241C686.4 317.341 691 293.041 691 288.241ZM830.8 308.42C839.1 304.12 839.4 303.72 839.1 297.22C837.4 252.42 825.7 197.941 809.3 171.941C804.5 164.341 801.1 160.941 798.2 160.941C796.9 160.941 796 161.241 796.2 161.741C804.1 179.541 813.3 202.941 816.9 220.941C819.7 234.741 822.7 275.82 823.5 293.82C824.2 308.32 824.5 310.82 825.5 310.82C825.8 310.82 828.2 309.72 830.8 308.42ZM315.2 282.641C316 281.341 315.3 222.12 313.9 191.62C311.9 146.92 307.5 127.52 302.8 112.12L300.6 105.12L299.9 112.12C298.7 124.92 299 166.82 300.5 190.62C303.2 234.92 304.2 262.441 303.5 273.641L302.9 284.841L308.7 284.241C311.9 283.941 314.8 283.141 315.2 282.641ZM623.3 302.141C623.5 301.841 624.2 297.841 624.8 293.241C626.6 278.241 638.6 227.741 644.7 211.441C647.9 202.841 655.1 188.241 659.7 181.041C661.6 178.141 662.9 175.541 662.7 175.341C662.5 175.141 658.8 177.041 654.5 179.741L646.6 184.441L638.8 198.941C631.1 213.441 624.9 230.141 620.1 249.441C617.6 259.441 609.7 299.741 609.7 303.441V306.241L616.2 304.441C619.8 303.441 623 302.341 623.3 302.141ZM901 298.52C901 296.32 896.2 255.741 894.6 249.441C890 230.741 884.1 214.441 876.2 199.241C869.1 185.341 866.3 181.941 859.1 178.041C855.7 176.241 852.7 174.941 852.5 175.141C852.3 175.341 853.5 177.641 855.1 180.341C861.8 191.041 868.3 205.541 873.4 221.141C879.4 239.141 882.3 272.22 884.9 290.32L886.6 295.32L892.6 297.52C899.5 300.12 901 300.22 901 298.52ZM655.1 301.141C655.4 299.341 660.2 273.741 660.5 269.141C662.8 235.641 676.5 196.841 692.4 171.941C694.3 168.941 695.7 166.341 695.5 166.141C695.3 165.941 693 166.741 690.3 167.941C683.5 170.841 676 176.141 666 196.041C656.8 214.241 643.5 268.941 641.1 295.041L640.5 302.241L644.3 302.841C646.5 303.241 648.7 303.641 649.2 303.841C652.8 305.041 654.6 304.241 655.1 301.141ZM869.5 296.42C869.5 296.42 858.5 216.041 846 190.441C839.7 177.341 828.3 167.341 824 166.441C822.3 166.041 820.6 165.941 820.4 166.241C820.1 166.541 821 168.541 822.3 170.641C829.9 182.541 840.2 202.041 845.4 219.941C849.2 232.841 854.4 281.32 855.6 294.72C855.4 292.82 856.3 301.32 855.6 294.72L856.1 298.02L860.8 297.32C863.4 297.02 869.5 296.42 869.5 296.42ZM336.3 241.341L341.1 234.741L340 192.32C338.4 153.52 335.3 150.72 326.9 118.62C320.1 92.7202 307.8 68.1202 303.1 71.0202C302.6 71.3202 303.8 76.2202 305.6 81.8202C310.4 96.2202 318.4 128.72 320.9 143.72C324.2 163.02 326.9 172.42 328.1 200.12C329.2 226.02 329.5 247.941 330.8 247.941C331.2 247.841 333.6 244.941 336.3 241.341ZM288 186.52C287.4 168.12 287.2 164.92 287.5 156.12C288.6 125.32 290.1 99.0202 291.5 85.9202C293.4 69.2202 293.5 70.4202 290.3 70.8202C287.9 71.1202 287.2 71.9202 285.8 76.3202C283.8 82.4202 279.5 105.42 277.3 121.62C276.2 129.92 275.7 146.32 275.3 180.32L274.8 208.62V226.82C276.6 228.42 282.9 233.841 284.9 235.641C286.9 237.341 288.6 238.641 288.8 238.441C289 238.341 288.6 204.82 288 186.52ZM464.3 207.42C462.2 189.02 455.5 178.22 449.8 161.72C443 141.92 438.2 133.62 426.6 122.02C416.5 112.02 410 106.62 410 108.42C410 108.92 412.2 112.72 414.8 116.72C421.7 127.32 430.4 143.92 435 155.02C440.2 167.92 447.5 174.72 449.6 187.62L451.3 198.12L457.4 204.42C460.7 207.82 463.7 210.62 464 210.62C464.4 210.62 464.5 209.12 464.3 207.42ZM367.1 209.02L372 204.32L370.6 192.82C366.9 151.32 356.6 128.62 343.5 102.42C337.2 89.8202 327.9 75.2202 325.3 73.8202C324.3 73.3202 321.9 72.5202 320 72.1202C316.6 71.4202 316.6 71.4202 318.1 73.2202C320.8 76.3202 332.5 102.12 337.4 115.92C348.3 146.02 355.9 163.92 357.7 194.92C358.1 201.62 359.3 214.82 360 214.82C360.6 214.82 364.1 210.42 367.1 209.02ZM258.3 194.42C259.4 150.32 263.1 124.42 273.4 87.0202C275.4 79.7202 277 73.3202 277 72.7202C277 72.1202 275.9 71.6202 274.5 71.6202C271.5 71.6202 269.7 74.2202 263.8 87.6202C257.9 101.02 251 130.82 248.5 152.92C247.2 164.92 243 192.82 243 203.32C243 207.52 244 207.82 248.8 211.82C251.6 213.22 255.9 216.32 256.5 216.32C257.2 216.32 257.9 211.52 258.3 194.42ZM187.5 198.32C190.5 197.452 192.5 194.32 192.5 194.32L193.3 183.02C197.4 151.82 200.1 158.12 207.5 136.62C212.5 122.02 219.3 107.02 228.4 90.7202C231.5 85.0202 233.9 80.2202 233.7 79.9202C232.7 79.0202 224.8 83.8202 221.2 87.5202C217.1 91.7202 207.2 108.52 201.1 121.72C196.3 132.02 187.8 159.12 185.1 172.92C184 178.52 182.4 188.52 181.5 195.12C180.7 201.72 176.2 204.32 176 205.62C175.4 208.22 184.5 199.189 187.5 198.32ZM395.5 194.32C399.4 193.32 400.6 189.52 400.8 187.82C401.9 180.52 387.7 145.22 380 127.42C374.6 114.82 365.8 99.8202 357.4 88.6202C351.2 80.3202 349.3 78.5202 345.5 77.0202C343 76.1202 340.7 75.5202 340.5 75.8202C340.2 76.1202 342.5 80.3202 345.5 85.2202C351.4 94.7202 361.4 113.72 366.6 125.12C376.5 147.12 388 172.62 388 189.02C388 193.12 388.3 196.12 395.5 194.32ZM226 183.62C226 174.42 228.8 169.62 231.6 155.22C236.5 130.32 246.4 99.8202 255.6 81.5202C257.4 77.8202 258.7 74.6202 258.4 74.3202C257.5 73.5202 251.9 75.4202 249.9 77.2202C245 81.7202 229.6 112.02 228 120.52C227.5 123.32 225.7 130.32 224.1 135.92C218.9 153.72 215.3 174.82 213.4 198.52C212.7 208.22 212 196.52 222.5 194.32C225.558 193.68 226 183.62 226 183.62ZM432.5 187.42C424.2 149.92 416.9 147.32 404.4 123.72C393.8 103.62 384.7 92.3202 375.1 87.2202C371.3 85.2202 367.7 83.6202 367.1 83.6202C366.5 83.6202 368.9 87.4202 372.4 92.0202C380.6 102.82 388.2 115.72 397 133.82C406.8 154.12 417 167.22 418.7 182.52C419.3 189.22 419.5 189.32 427.8 189.52C432.7 189.62 433 189.52 432.5 187.42ZM123.6 132.02C146.1 109.62 168.6 92.9202 192 81.1202C195.8 79.2202 199.1 77.3202 199.4 76.8202C200 75.8202 174.2 57.1202 164 48.5202C151.5 37.9202 137.4 28.4202 131 26.1202C127.6 24.9202 126.9 25.0202 124.2 26.7202C111.2 34.5202 93.9 95.6202 94 146.32L94.1 163.12L100.7 155.62C104.3 151.52 114.6 140.82 123.6 132.02ZM481 160.92C481 160.92 481.9 147.32 483 131.62C485.9 89.9202 464 62 464 62C464 62 485.8 30.4202 482.1 31.2202C477.5 32.3202 451.4 32.2202 444.9 36.7202C434.6 43.7202 395 76.9202 394.3 79.1202C394.2 79.7202 397.1 82.0202 400.8 84.3202C410.1 90.0202 429.9 104.82 439.4 113.12C450.3 122.62 463.8 138.12 472.3 150.82C478.8 160.52 481 160.92 481 160.92Z" fill="#020202"/>
<path d="M267 415.04L263.5 414.34L267.5 412.44C269.7 411.44 280.062 411.92 285.562 409.32C291.162 406.82 301.362 400.02 304.562 397.82C320.562 387.02 316.9 377.74 309 367.54C305.8 363.44 305.3 362.14 306.1 360.14C309 352.64 304.6 347.44 296.4 348.64C292.3 349.14 292.1 349.04 289.5 344.94C288.1 342.64 287 340.04 287.2 339.14C287.4 338.24 290.6 335.94 294.3 333.94L301.1 330.54L309.5 332.24C319.5 334.34 324 334.34 330.1 332.54C335.7 330.84 340 331.54 346.5 335.34C351.3 338.24 352.1 340.44 349.8 345.34C348.5 348.34 346 349.34 342.1 348.44C338.4 347.64 333.2 350.14 332 353.34C331.5 354.84 331.5 357.04 332.2 359.24C333.2 362.54 333 363.14 329.1 368.54C323.562 379.82 313.219 389.82 349.062 409.32C355.762 413.42 367 414.74 367 415.24C367 416.34 362.1 416.04 352.8 414.44C342.6 412.64 331.201 420.82 317 420.82C306 420.82 291.3 413.24 288.9 413.84C282.4 415.14 271 415.84 267 415.04Z" fill="#020202"/>
<path d="M224.502 288.84C215.802 287.64 210.202 285.04 204.002 278.94C198.702 273.74 194.702 266.74 192.902 259.34C192.102 255.84 190.501 253.14 187.201 249.74C184.701 247.14 174.261 247.12 174.561 246.82C176.161 245.22 204.502 239.84 213.502 239.84C228.702 239.74 234.902 241.44 244.802 248.04C253.302 253.74 258.001 259.14 262.601 268.14C269.301 281.44 268.302 287.64 260.002 284.94C256.402 283.74 255.602 283.84 250.302 286.14C243.502 289.24 234.402 290.14 224.502 288.84ZM241.502 279.54C248.302 277.74 253.002 275.24 253.002 273.34C253.002 272.54 252.502 270.84 251.902 269.64C250.702 267.24 242.002 257.94 240.902 257.94C240.602 257.94 239.801 259.84 239.101 262.24C237.701 266.94 233.902 272.34 231.002 273.94C228.302 275.34 224.402 273.34 221.802 269.14C219.502 265.44 218.802 257.84 220.302 252.74L221.002 249.94H213.302C208.402 250.04 204.802 250.54 203.802 251.34C199.402 254.64 203.302 265.24 211.402 272.74C219.702 280.24 230.102 282.64 241.502 279.54Z" fill="#020202"/>
<path d="M377.5 287.54C374.8 286.74 371.2 285.64 369.7 285.04C367.8 284.24 366.3 284.24 365 284.94C361.3 286.94 357 283.74 357 279.14C357 276.34 362.5 265.84 367.1 259.64C375.7 248.04 387.4 241.54 402.4 240.04C414.7 238.84 445.562 242.82 445.562 245.82C445.562 246.42 438.2 248.24 436.1 250.34C433.5 252.84 431.8 255.74 431 258.64C428.4 269.24 420.1 280.44 411 285.74C406.9 288.24 405.5 288.44 394.5 288.64C386.6 288.84 380.8 288.44 377.5 287.54ZM405.5 278.24C414 273.74 419.9 264.94 420.3 256.14C420.5 250.54 418.5 248.94 411.4 248.94C403.2 248.94 403 249.14 403 257.24C403 265.94 400.4 272.14 395.9 273.94C393.1 275.14 392.7 275.04 389.4 271.84C387.5 269.94 385.2 266.34 384.2 263.74C383.3 261.04 382.3 258.94 381.9 258.94C381.6 258.94 379 261.34 376.1 264.34C372.4 268.34 371 270.64 371 272.74C371 275.54 371.5 275.84 378.8 278.34C388.3 281.64 399 281.54 405.5 278.24Z" fill="#020202"/>
</svg>
